<mxfile host="Electron" modified="2023-06-18T11:46:21.104Z" agent="Mozilla/5.0 (Windows NT 10.0; Win64; x64) AppleWebKit/537.36 (KHTML, like Gecko) draw.io/21.2.8 Chrome/112.0.5615.165 Electron/24.2.0 Safari/537.36" etag="mcqPPHKDWctpSQAqpKRU" version="21.2.8" type="device">
  <diagram name="Page-1" id="jOTbS239regMLlkqWPYL">
    <mxGraphModel dx="1830" dy="2425" grid="0" gridSize="10" guides="1" tooltips="1" connect="1" arrows="1" fold="1" page="0" pageScale="1" pageWidth="850" pageHeight="1100" math="0" shadow="0">
      <root>
        <mxCell id="0" />
        <mxCell id="1" parent="0" />
        <mxCell id="x1LBng_5WOXiY_3KLzgl-1" value="&lt;font style=&quot;font-weight: normal; font-size: 20px;&quot; color=&quot;#000000&quot;&gt;Microcontroller&lt;/font&gt;" style="vsdxID=95;fillColor=#f8cecc;shape=stencil(nZCxDsIwDES/xitKk6V7KT/AF0TUEIuQVGmgwNeT9kCqOjB0s++efdKRaQZneyathpzilUfpsiOzJ60lOE6Sy0SmJdOcY+JLivfQYe9tIbWaFe5wU020VjadjvJmaPWu0jV0HN7iYwp8wlawXt8HCvsBqJewQH/mJvgPuhFcxZdhrgRlifdodOmvKywS6jftBw==);strokeColor=#b85450;spacingTop=-1;spacingBottom=-1;spacingLeft=-1;spacingRight=-1;points=[[0,0.75,0],[0,0.5,0],[0,0.25,0],[0.25,0,0],[0.5,0,0],[0.75,0,0],[1,0.25,0],[1,0.5,0],[1,0.75,0],[0.75,1,0],[0.5,1,0],[0.25,1,0]];labelBackgroundColor=none;rounded=1;html=1;whiteSpace=wrap;fontFamily=Calibri;fontSize=19;fontStyle=1;fontColor=#FFFFFF;" parent="1" vertex="1">
          <mxGeometry x="-65" y="-645" width="550" height="44" as="geometry" />
        </mxCell>
        <UserObject label="" BpmnName="MCAL" tags="Flowchart" id="x1LBng_5WOXiY_3KLzgl-2">
          <mxCell style="vsdxID=815;fillColor=none;gradientColor=none;strokeColor=none;spacingTop=-1;spacingBottom=-1;spacingLeft=-1;spacingRight=-1;points=[[0,0.75,0],[0,0.5,0],[0,0.25,0],[0.25,0,0],[0.5,0,0],[0.75,0,0],[1,0.25,0],[1,0.5,0],[1,0.75,0],[0.75,1,0],[0.5,1,0],[0.25,1,0]];labelBackgroundColor=none;rounded=1;html=1;whiteSpace=wrap;fontFamily=Calibri;fontSize=19;fontStyle=1;fontColor=#FFFFFF;" parent="1" vertex="1">
            <mxGeometry x="-65" y="-778" width="550" height="125" as="geometry" />
          </mxCell>
        </UserObject>
        <mxCell id="x1LBng_5WOXiY_3KLzgl-3" style="vsdxID=816;fillColor=#dae8fc;shape=stencil(nZCxDsIwDES/xitKk6V7KT/AF0TUEIuQVGmgwNeT9kCqOjB0s++efdKRaQZneyathpzilUfpsiOzJ60lOE6Sy0SmJdOcY+JLivfQYe9tIbWaFe5wU020VjadjvJmaPWu0jV0HN7iYwp8wlawXt8HCvsBqJewQH/mJvgPuhFcxZdhrgRlifdodOmvKywS6jftBw==);strokeColor=#6c8ebf;spacingTop=-1;spacingBottom=-1;spacingLeft=-1;spacingRight=-1;points=[[0,0.75,0],[0,0.5,0],[0,0.25,0],[0.25,0,0],[0.5,0,0],[0.75,0,0],[1,0.25,0],[1,0.5,0],[1,0.75,0],[0.75,1,0],[0.5,1,0],[0.25,1,0]];labelBackgroundColor=none;rounded=1;html=1;whiteSpace=wrap;fontFamily=Calibri;fontSize=19;fontStyle=1;fontColor=#FFFFFF;" parent="x1LBng_5WOXiY_3KLzgl-2" vertex="1">
          <mxGeometry width="550" height="125" as="geometry" />
        </mxCell>
        <mxCell id="x1LBng_5WOXiY_3KLzgl-4" value="&lt;div style=&quot;font-size: 19px;&quot;&gt;&lt;/div&gt;" style="verticalAlign=middle;align=center;overflow=width;vsdxID=820;fillColor=none;gradientColor=none;strokeColor=none;strokeWidth=2;spacingTop=-3;spacingBottom=-3;spacingLeft=-3;spacingRight=-3;points=[[0,0.75,0],[0,0.5,0],[0,0.25,0],[0.25,0,0],[0.5,0,0],[0.75,0,0],[1,0.25,0],[1,0.5,0],[1,0.75,0],[0.75,1,0],[0.5,1,0],[0.25,1,0]];labelBackgroundColor=none;rounded=0;html=1;whiteSpace=wrap;fontFamily=Calibri;fontSize=19;fontStyle=1;fontColor=#FFFFFF;" parent="x1LBng_5WOXiY_3KLzgl-2" vertex="1">
          <mxGeometry x="275.9963768115942" y="109.375" width="15.942028985507246" height="12.5" as="geometry" />
        </mxCell>
        <mxCell id="x1LBng_5WOXiY_3KLzgl-5" value="&lt;div style=&quot;font-size: 19px;&quot;&gt;&lt;/div&gt;" style="verticalAlign=middle;align=center;overflow=width;vsdxID=828;fillColor=none;gradientColor=none;strokeColor=none;spacingTop=-1;spacingBottom=-1;spacingLeft=-1;spacingRight=-1;points=[[0,0.75,0],[0,0.5,0],[0,0.25,0],[0.25,0,0],[0.5,0,0],[0.75,0,0],[1,0.25,0],[1,0.5,0],[1,0.75,0],[0.75,1,0],[0.5,1,0],[0.25,1,0]];labelBackgroundColor=none;rounded=0;html=1;whiteSpace=wrap;fontFamily=Calibri;fontSize=19;fontStyle=1;fontColor=#FFFFFF;" parent="x1LBng_5WOXiY_3KLzgl-2" vertex="1">
          <mxGeometry x="4.981884057971015" y="3.90625" width="13.94927536231884" height="10.9375" as="geometry" />
        </mxCell>
        <mxCell id="x1LBng_5WOXiY_3KLzgl-6" value="&lt;div style=&quot;font-size: 19px;&quot;&gt;&lt;font style=&quot;font-size: 19px; direction: ltr; letter-spacing: 0px; line-height: 120%; opacity: 1;&quot;&gt;MCAL&lt;br style=&quot;font-size: 19px;&quot;&gt;&lt;/font&gt;&lt;/div&gt;" style="text;vsdxID=815;fillColor=none;gradientColor=none;strokeColor=none;spacingTop=-1;spacingBottom=-1;spacingLeft=-1;spacingRight=-1;points=[[0,0.75,0],[0,0.5,0],[0,0.25,0],[0.25,0,0],[0.5,0,0],[0.75,0,0],[1,0.25,0],[1,0.5,0],[1,0.75,0],[0.75,1,0],[0.5,1,0],[0.25,1,0]];labelBackgroundColor=none;rounded=1;html=1;whiteSpace=wrap;verticalAlign=top;align=center;overflow=width;;html=1;fontFamily=Calibri;fontSize=19;fontStyle=1;fontColor=#FFFFFF;" parent="x1LBng_5WOXiY_3KLzgl-2" vertex="1">
          <mxGeometry x="6.326992753623188" y="6.351562500000001" width="550.4483695652174" as="geometry" />
        </mxCell>
        <mxCell id="x1LBng_5WOXiY_3KLzgl-7" value="&lt;font style=&quot;font-size: 19px;&quot;&gt;MCAL&lt;/font&gt;" style="text;strokeColor=none;align=center;fillColor=none;html=1;verticalAlign=middle;whiteSpace=wrap;rounded=0;fontSize=16;fontColor=#1ba1e2;" parent="x1LBng_5WOXiY_3KLzgl-2" vertex="1">
          <mxGeometry x="245.1048913043478" y="10.9375" width="59.78260869565217" height="23.4375" as="geometry" />
        </mxCell>
        <UserObject label="" BpmnName="DIO" tags="Flowchart" id="x1LBng_5WOXiY_3KLzgl-43">
          <mxCell style="vsdxID=356;fillColor=none;gradientColor=none;strokeColor=none;spacingTop=-1;spacingBottom=-1;spacingLeft=-1;spacingRight=-1;points=[[0,0.75,0],[0,0.5,0],[0,0.25,0],[0.25,0,0],[0.5,0,0],[0.75,0,0],[1,0.25,0],[1,0.5,0],[1,0.75,0],[0.75,1,0],[0.5,1,0],[0.25,1,0]];labelBackgroundColor=none;rounded=1;html=1;whiteSpace=wrap;fontFamily=Calibri;fontSize=19;fontStyle=1;fontColor=#FFFFFF;" parent="x1LBng_5WOXiY_3KLzgl-2" vertex="1">
            <mxGeometry x="210" y="49.37" width="318.54" height="60" as="geometry" />
          </mxCell>
        </UserObject>
        <mxCell id="x1LBng_5WOXiY_3KLzgl-44" value="GPIO" style="vsdxID=357;fillColor=#1ba1e2;shape=stencil(nZCxDsIwDES/xitKk6V7KT/AF0TUEIuQVGmgwNeT9kCqOjB0s++efdKRaQZneyathpzilUfpsiOzJ60lOE6Sy0SmJdOcY+JLivfQYe9tIbWaFe5wU020VjadjvJmaPWu0jV0HN7iYwp8wlawXt8HCvsBqJewQH/mJvgPuhFcxZdhrgRlifdodOmvKywS6jftBw==);strokeColor=#006EAF;spacingTop=-1;spacingBottom=-1;spacingLeft=-1;spacingRight=-1;points=[[0,0.75,0],[0,0.5,0],[0,0.25,0],[0.25,0,0],[0.5,0,0],[0.75,0,0],[1,0.25,0],[1,0.5,0],[1,0.75,0],[0.75,1,0],[0.5,1,0],[0.25,1,0]];labelBackgroundColor=none;rounded=1;html=1;whiteSpace=wrap;fontColor=#FFFFFF;fontFamily=Calibri;fontSize=19;fontStyle=1" parent="x1LBng_5WOXiY_3KLzgl-43" vertex="1">
          <mxGeometry width="318.5400000000001" height="60" as="geometry" />
        </mxCell>
        <mxCell id="x1LBng_5WOXiY_3KLzgl-45" value="&lt;div style=&quot;font-size: 19px;&quot;&gt;&lt;/div&gt;" style="verticalAlign=middle;align=center;overflow=width;vsdxID=361;fillColor=none;gradientColor=none;strokeColor=none;strokeWidth=2;spacingTop=-3;spacingBottom=-3;spacingLeft=-3;spacingRight=-3;points=[[0,0.75,0],[0,0.5,0],[0,0.25,0],[0.25,0,0],[0.5,0,0],[0.75,0,0],[1,0.25,0],[1,0.5,0],[1,0.75,0],[0.75,1,0],[0.5,1,0],[0.25,1,0]];labelBackgroundColor=none;rounded=0;html=1;whiteSpace=wrap;fontFamily=Calibri;fontSize=19;fontStyle=1;fontColor=#FFFFFF;" parent="x1LBng_5WOXiY_3KLzgl-43" vertex="1">
          <mxGeometry x="160.6671052631579" y="44.21052631578947" width="22.35368421052632" height="12.631578947368421" as="geometry" />
        </mxCell>
        <mxCell id="x1LBng_5WOXiY_3KLzgl-46" value="&lt;div style=&quot;font-size: 19px;&quot;&gt;&lt;/div&gt;" style="verticalAlign=middle;align=center;overflow=width;vsdxID=369;fillColor=none;gradientColor=none;strokeColor=none;spacingTop=-1;spacingBottom=-1;spacingLeft=-1;spacingRight=-1;points=[[0,0.75,0],[0,0.5,0],[0,0.25,0],[0.25,0,0],[0.5,0,0],[0.75,0,0],[1,0.25,0],[1,0.5,0],[1,0.75,0],[0.75,1,0],[0.5,1,0],[0.25,1,0]];labelBackgroundColor=none;rounded=0;html=1;whiteSpace=wrap;fontFamily=Calibri;fontSize=19;fontStyle=1;fontColor=#FFFFFF;" parent="x1LBng_5WOXiY_3KLzgl-43" vertex="1">
          <mxGeometry x="6.985526315789476" y="3.947368421052632" width="19.55947368421053" height="11.052631578947368" as="geometry" />
        </mxCell>
        <mxCell id="x1LBng_5WOXiY_3KLzgl-47" value="&lt;div style=&quot;font-size: 19px;&quot;&gt;&lt;font style=&quot;font-size: 19px; direction: ltr; letter-spacing: 0px; line-height: 120%; opacity: 1;&quot;&gt;&lt;span style=&quot;font-size: 19px;&quot;&gt;DIO&lt;br style=&quot;font-size: 19px;&quot;&gt;&lt;/span&gt;&lt;/font&gt;&lt;/div&gt;" style="text;vsdxID=356;fillColor=none;gradientColor=none;strokeColor=none;spacingTop=-1;spacingBottom=-1;spacingLeft=-1;spacingRight=-1;points=[[0,0.75,0],[0,0.5,0],[0,0.25,0],[0.25,0,0],[0.5,0,0],[0.75,0,0],[1,0.25,0],[1,0.5,0],[1,0.75,0],[0.75,1,0],[0.5,1,0],[0.25,1,0]];labelBackgroundColor=none;rounded=1;html=1;whiteSpace=wrap;verticalAlign=middle;align=center;overflow=width;;html=1;fontFamily=Calibri;fontSize=19;fontStyle=1;fontColor=#FFFFFF;" parent="x1LBng_5WOXiY_3KLzgl-43" vertex="1">
          <mxGeometry y="29.921052631578945" width="319.37826315789476" as="geometry" />
        </mxCell>
        <UserObject label="" BpmnName="TIMER" tags="Flowchart" id="x1LBng_5WOXiY_3KLzgl-76">
          <mxCell style="vsdxID=907;fillColor=none;gradientColor=none;strokeColor=none;spacingTop=-1;spacingBottom=-1;spacingLeft=-1;spacingRight=-1;points=[[0,0.75,0],[0,0.5,0],[0,0.25,0],[0.25,0,0],[0.5,0,0],[0.75,0,0],[1,0.25,0],[1,0.5,0],[1,0.75,0],[0.75,1,0],[0.5,1,0],[0.25,1,0]];labelBackgroundColor=none;rounded=1;html=1;whiteSpace=wrap;fontFamily=Calibri;fontSize=19;fontStyle=1;fontColor=#FFFFFF;" parent="x1LBng_5WOXiY_3KLzgl-2" vertex="1">
            <mxGeometry x="21.47" y="49.37" width="177.53" height="60" as="geometry" />
          </mxCell>
        </UserObject>
        <mxCell id="x1LBng_5WOXiY_3KLzgl-77" value="SYSTICK" style="vsdxID=908;fillColor=#1ba1e2;shape=stencil(nZCxDsIwDES/xitKk6V7KT/AF0TUEIuQVGmgwNeT9kCqOjB0s++efdKRaQZneyathpzilUfpsiOzJ60lOE6Sy0SmJdOcY+JLivfQYe9tIbWaFe5wU020VjadjvJmaPWu0jV0HN7iYwp8wlawXt8HCvsBqJewQH/mJvgPuhFcxZdhrgRlifdodOmvKywS6jftBw==);strokeColor=#006EAF;spacingTop=-1;spacingBottom=-1;spacingLeft=-1;spacingRight=-1;points=[[0,0.75,0],[0,0.5,0],[0,0.25,0],[0.25,0,0],[0.5,0,0],[0.75,0,0],[1,0.25,0],[1,0.5,0],[1,0.75,0],[0.75,1,0],[0.5,1,0],[0.25,1,0]];labelBackgroundColor=none;rounded=1;html=1;whiteSpace=wrap;fontColor=#FFFFFF;fontFamily=Calibri;fontSize=19;fontStyle=1" parent="x1LBng_5WOXiY_3KLzgl-76" vertex="1">
          <mxGeometry width="177.53" height="60" as="geometry" />
        </mxCell>
        <mxCell id="x1LBng_5WOXiY_3KLzgl-78" value="&lt;div style=&quot;font-size: 19px;&quot;&gt;&lt;/div&gt;" style="verticalAlign=middle;align=center;overflow=width;vsdxID=912;fillColor=none;gradientColor=none;strokeColor=none;strokeWidth=2;spacingTop=-3;spacingBottom=-3;spacingLeft=-3;spacingRight=-3;points=[[0,0.75,0],[0,0.5,0],[0,0.25,0],[0.25,0,0],[0.5,0,0],[0.75,0,0],[1,0.25,0],[1,0.5,0],[1,0.75,0],[0.75,1,0],[0.5,1,0],[0.25,1,0]];labelBackgroundColor=none;rounded=0;html=1;whiteSpace=wrap;fontFamily=Calibri;fontSize=19;fontStyle=1;fontColor=#FFFFFF;" parent="x1LBng_5WOXiY_3KLzgl-76" vertex="1">
          <mxGeometry x="89.5236752136752" y="44.21052631578947" width="24.277606837606836" height="12.631578947368421" as="geometry" />
        </mxCell>
        <mxCell id="x1LBng_5WOXiY_3KLzgl-79" value="&lt;div style=&quot;font-size: 19px;&quot;&gt;&lt;/div&gt;" style="verticalAlign=middle;align=center;overflow=width;vsdxID=920;fillColor=none;gradientColor=none;strokeColor=none;spacingTop=-1;spacingBottom=-1;spacingLeft=-1;spacingRight=-1;points=[[0,0.75,0],[0,0.5,0],[0,0.25,0],[0.25,0,0],[0.5,0,0],[0.75,0,0],[1,0.25,0],[1,0.5,0],[1,0.75,0],[0.75,1,0],[0.5,1,0],[0.25,1,0]];labelBackgroundColor=none;rounded=0;html=1;whiteSpace=wrap;fontFamily=Calibri;fontSize=19;fontStyle=1;fontColor=#FFFFFF;" parent="x1LBng_5WOXiY_3KLzgl-76" vertex="1">
          <mxGeometry x="7.586752136752136" y="3.947368421052632" width="21.24290598290598" height="11.052631578947368" as="geometry" />
        </mxCell>
        <mxCell id="x1LBng_5WOXiY_3KLzgl-80" value="&lt;div style=&quot;font-size: 19px;&quot;&gt;&lt;p style=&quot;text-align: center; margin: 0px; text-indent: 0px; vertical-align: middle; direction: ltr; font-size: 19px;&quot;&gt;&lt;font style=&quot;font-size: 19px; direction: ltr; letter-spacing: 0px; line-height: 120%; opacity: 1;&quot;&gt;&lt;span style=&quot;font-size: 19px;&quot;&gt;TIMER&lt;br style=&quot;font-size: 19px;&quot;&gt;&lt;/span&gt;&lt;/font&gt;&lt;/p&gt;&lt;/div&gt;" style="text;vsdxID=907;fillColor=none;gradientColor=none;strokeColor=none;spacingTop=-1;spacingBottom=-1;spacingLeft=-1;spacingRight=-1;points=[[0,0.75,0],[0,0.5,0],[0,0.25,0],[0.25,0,0],[0.5,0,0],[0.75,0,0],[1,0.25,0],[1,0.5,0],[1,0.75,0],[0.75,1,0],[0.5,1,0],[0.25,1,0]];labelBackgroundColor=none;rounded=1;html=1;whiteSpace=wrap;verticalAlign=middle;align=center;overflow=width;;html=1;fontFamily=Calibri;fontSize=19;fontStyle=1;fontColor=#FFFFFF;" parent="x1LBng_5WOXiY_3KLzgl-76" vertex="1">
          <mxGeometry y="29.715789473684215" width="178.2431547008547" as="geometry" />
        </mxCell>
        <UserObject label="&lt;div style=&quot;font-size: 1px&quot;&gt;&lt;font style=&quot;font-size:25.4px;font-family:Calibri;color:#ffffff;direction:ltr;letter-spacing:0px;line-height:120%;opacity:1&quot;&gt;RGB LED Control V1.0&lt;/font&gt;&lt;/div&gt;&lt;div style=&quot;font-size: 1px&quot;&gt;&lt;font style=&quot;font-size:25.4px;font-family:Calibri;color:#ffffff;direction:ltr;letter-spacing:0px;line-height:120%;opacity:1&quot;&gt;Layered Architecture&lt;/font&gt;&lt;/div&gt;" tags="Background" id="x1LBng_5WOXiY_3KLzgl-8">
          <mxCell style="verticalAlign=middle;align=center;overflow=width;vsdxID=47;fillColor=#4271c6;gradientColor=none;shape=stencil(nZBLDoAgDERP0z3SIyjew0SURgSD+Lu9kMZoXLhwN9O+tukAlrNpJg1SzDH4QW/URgNYgZTkjA4UkwJUgGXng+6DX1zLfmoymdXo17xh5zmRJ6Q42BWCfc2oJfdAr+Yv+AP9Cb7OJ3H/2JG1HNGz/84klThPVCc=);strokeColor=#ffffff;points=[];labelBackgroundColor=none;rounded=0;html=1;whiteSpace=wrap;" parent="1" vertex="1">
            <mxGeometry x="-18" y="-1308" width="355" height="152" as="geometry" />
          </mxCell>
        </UserObject>
        <UserObject label="" BpmnName="Application" tags="Flowchart" id="x1LBng_5WOXiY_3KLzgl-9">
          <mxCell style="vsdxID=71;fillColor=none;gradientColor=none;strokeColor=none;spacingTop=-1;spacingBottom=-1;spacingLeft=-1;spacingRight=-1;points=[[0,0.75,0],[0,0.5,0],[0,0.25,0],[0.25,0,0],[0.5,0,0],[0.75,0,0],[1,0.25,0],[1,0.5,0],[1,0.75,0],[0.75,1,0],[0.5,1,0],[0.25,1,0]];labelBackgroundColor=none;rounded=1;html=1;whiteSpace=wrap;fontFamily=Calibri;fontSize=19;fontStyle=1;fontColor=#FFFFFF;" parent="1" vertex="1">
            <mxGeometry x="-65" y="-1083.6" width="550" height="152" as="geometry" />
          </mxCell>
        </UserObject>
        <mxCell id="x1LBng_5WOXiY_3KLzgl-10" style="vsdxID=72;fillColor=#d5e8d4;shape=stencil(nZCxDsIwDES/xitKk6V7KT/AF0TUEIuQVGmgwNeT9kCqOjB0s++efdKRaQZneyathpzilUfpsiOzJ60lOE6Sy0SmJdOcY+JLivfQYe9tIbWaFe5wU020VjadjvJmaPWu0jV0HN7iYwp8wlawXt8HCvsBqJewQH/mJvgPuhFcxZdhrgRlifdodOmvKywS6jftBw==);strokeColor=#82b366;spacingTop=-1;spacingBottom=-1;spacingLeft=-1;spacingRight=-1;points=[[0,0.75,0],[0,0.5,0],[0,0.25,0],[0.25,0,0],[0.5,0,0],[0.75,0,0],[1,0.25,0],[1,0.5,0],[1,0.75,0],[0.75,1,0],[0.5,1,0],[0.25,1,0]];labelBackgroundColor=none;rounded=1;html=1;whiteSpace=wrap;fontFamily=Calibri;fontSize=19;fontStyle=1;fontColor=#FFFFFF;" parent="x1LBng_5WOXiY_3KLzgl-9" vertex="1">
          <mxGeometry width="550" height="152" as="geometry" />
        </mxCell>
        <mxCell id="x1LBng_5WOXiY_3KLzgl-11" value="&lt;div style=&quot;font-size: 19px;&quot;&gt;&lt;/div&gt;" style="verticalAlign=middle;align=center;overflow=width;vsdxID=76;fillColor=none;gradientColor=none;strokeColor=none;strokeWidth=2;spacingTop=-3;spacingBottom=-3;spacingLeft=-3;spacingRight=-3;points=[[0,0.75,0],[0,0.5,0],[0,0.25,0],[0.25,0,0],[0.5,0,0],[0.75,0,0],[1,0.25,0],[1,0.5,0],[1,0.75,0],[0.75,1,0],[0.5,1,0],[0.25,1,0]];labelBackgroundColor=none;rounded=0;html=1;whiteSpace=wrap;fontFamily=Calibri;fontSize=19;fontStyle=1;fontColor=#FFFFFF;" parent="x1LBng_5WOXiY_3KLzgl-9" vertex="1">
          <mxGeometry x="275.9963768115942" y="132" width="15.942028985507246" height="16" as="geometry" />
        </mxCell>
        <mxCell id="x1LBng_5WOXiY_3KLzgl-12" value="&lt;div style=&quot;font-size: 19px;&quot;&gt;&lt;/div&gt;" style="verticalAlign=middle;align=center;overflow=width;vsdxID=84;fillColor=none;gradientColor=none;strokeColor=none;spacingTop=-1;spacingBottom=-1;spacingLeft=-1;spacingRight=-1;points=[[0,0.75,0],[0,0.5,0],[0,0.25,0],[0.25,0,0],[0.5,0,0],[0.75,0,0],[1,0.25,0],[1,0.5,0],[1,0.75,0],[0.75,1,0],[0.5,1,0],[0.25,1,0]];labelBackgroundColor=none;rounded=0;html=1;whiteSpace=wrap;fontFamily=Calibri;fontSize=19;fontStyle=1;fontColor=#FFFFFF;" parent="x1LBng_5WOXiY_3KLzgl-9" vertex="1">
          <mxGeometry x="4.981884057971015" y="5" width="13.94927536231884" height="14" as="geometry" />
        </mxCell>
        <mxCell id="x1LBng_5WOXiY_3KLzgl-13" value="&lt;div style=&quot;font-size: 19px;&quot;&gt;&lt;font style=&quot;font-size: 19px; direction: ltr; letter-spacing: 0px; line-height: 120%; opacity: 1;&quot;&gt;Application&lt;br style=&quot;font-size: 19px;&quot;&gt;&lt;/font&gt;&lt;/div&gt;" style="text;vsdxID=71;fillColor=none;gradientColor=none;strokeColor=none;spacingTop=-1;spacingBottom=-1;spacingLeft=-1;spacingRight=-1;points=[[0,0.75,0],[0,0.5,0],[0,0.25,0],[0.25,0,0],[0.5,0,0],[0.75,0,0],[1,0.25,0],[1,0.5,0],[1,0.75,0],[0.75,1,0],[0.5,1,0],[0.25,1,0]];labelBackgroundColor=none;rounded=1;html=1;whiteSpace=wrap;verticalAlign=top;align=center;overflow=width;;html=1;fontFamily=Calibri;fontSize=19;fontStyle=1;fontColor=#FFFFFF;" parent="x1LBng_5WOXiY_3KLzgl-9" vertex="1">
          <mxGeometry y="-0.4" width="550.4483695652174" as="geometry" />
        </mxCell>
        <mxCell id="x1LBng_5WOXiY_3KLzgl-14" value="&lt;font color=&quot;#72ac41&quot; style=&quot;font-size: 20px; font-weight: normal;&quot;&gt;Application&lt;/font&gt;" style="text;strokeColor=none;fillColor=none;html=1;align=center;verticalAlign=middle;whiteSpace=wrap;rounded=0;fontSize=19;fontColor=#FFFFFF;fontFamily=Calibri;fontStyle=1" parent="x1LBng_5WOXiY_3KLzgl-9" vertex="1">
          <mxGeometry x="224.68297101449275" y="5" width="100.63405797101449" height="30" as="geometry" />
        </mxCell>
        <UserObject label="" BpmnName="ECUAL" tags="Flowchart" id="x1LBng_5WOXiY_3KLzgl-15">
          <mxCell style="vsdxID=140;fillColor=none;gradientColor=none;strokeColor=none;spacingTop=-1;spacingBottom=-1;spacingLeft=-1;spacingRight=-1;points=[[0,0.75,0],[0,0.5,0],[0,0.25,0],[0.25,0,0],[0.5,0,0],[0.75,0,0],[1,0.25,0],[1,0.5,0],[1,0.75,0],[0.75,1,0],[0.5,1,0],[0.25,1,0]];labelBackgroundColor=none;rounded=1;html=1;whiteSpace=wrap;fontFamily=Calibri;fontSize=19;fontStyle=1;fontColor=#FFFFFF;" parent="1" vertex="1">
            <mxGeometry x="-65" y="-921" width="550" height="133" as="geometry" />
          </mxCell>
        </UserObject>
        <mxCell id="x1LBng_5WOXiY_3KLzgl-16" style="vsdxID=141;fillColor=#ffe6cc;shape=stencil(nZCxDsIwDES/xitKk6V7KT/AF0TUEIuQVGmgwNeT9kCqOjB0s++efdKRaQZneyathpzilUfpsiOzJ60lOE6Sy0SmJdOcY+JLivfQYe9tIbWaFe5wU020VjadjvJmaPWu0jV0HN7iYwp8wlawXt8HCvsBqJewQH/mJvgPuhFcxZdhrgRlifdodOmvKywS6jftBw==);strokeColor=#d79b00;spacingTop=-1;spacingBottom=-1;spacingLeft=-1;spacingRight=-1;points=[[0,0.75,0],[0,0.5,0],[0,0.25,0],[0.25,0,0],[0.5,0,0],[0.75,0,0],[1,0.25,0],[1,0.5,0],[1,0.75,0],[0.75,1,0],[0.5,1,0],[0.25,1,0]];labelBackgroundColor=none;rounded=1;html=1;whiteSpace=wrap;fontFamily=Calibri;fontSize=19;fontStyle=1;fontColor=#FFFFFF;" parent="x1LBng_5WOXiY_3KLzgl-15" vertex="1">
          <mxGeometry y="1" width="550" height="132" as="geometry" />
        </mxCell>
        <mxCell id="x1LBng_5WOXiY_3KLzgl-17" value="&lt;div style=&quot;font-size: 19px;&quot;&gt;&lt;/div&gt;" style="verticalAlign=middle;align=center;overflow=width;vsdxID=145;fillColor=none;gradientColor=none;strokeColor=none;strokeWidth=2;spacingTop=-3;spacingBottom=-3;spacingLeft=-3;spacingRight=-3;points=[[0,0.75,0],[0,0.5,0],[0,0.25,0],[0.25,0,0],[0.5,0,0],[0.75,0,0],[1,0.25,0],[1,0.5,0],[1,0.75,0],[0.75,1,0],[0.5,1,0],[0.25,1,0]];labelBackgroundColor=none;rounded=0;html=1;whiteSpace=wrap;fontFamily=Calibri;fontSize=19;fontStyle=1;fontColor=#FFFFFF;" parent="x1LBng_5WOXiY_3KLzgl-15" vertex="1">
          <mxGeometry x="275.9963768115942" y="116.375" width="15.942028985507246" height="13.3" as="geometry" />
        </mxCell>
        <mxCell id="x1LBng_5WOXiY_3KLzgl-18" value="&lt;div style=&quot;font-size: 19px;&quot;&gt;&lt;/div&gt;" style="verticalAlign=middle;align=center;overflow=width;vsdxID=153;fillColor=none;gradientColor=none;strokeColor=none;spacingTop=-1;spacingBottom=-1;spacingLeft=-1;spacingRight=-1;points=[[0,0.75,0],[0,0.5,0],[0,0.25,0],[0.25,0,0],[0.5,0,0],[0.75,0,0],[1,0.25,0],[1,0.5,0],[1,0.75,0],[0.75,1,0],[0.5,1,0],[0.25,1,0]];labelBackgroundColor=none;rounded=0;html=1;whiteSpace=wrap;fontFamily=Calibri;fontSize=19;fontStyle=1;fontColor=#FFFFFF;" parent="x1LBng_5WOXiY_3KLzgl-15" vertex="1">
          <mxGeometry x="4.981884057971015" y="4.15625" width="13.94927536231884" height="11.637500000000001" as="geometry" />
        </mxCell>
        <mxCell id="x1LBng_5WOXiY_3KLzgl-19" value="&lt;div style=&quot;font-size: 1px&quot;&gt;&lt;font style=&quot;font-size:19.76px;font-family:Calibri;color:#615884;direction:ltr;letter-spacing:0px;line-height:120%;opacity:1&quot;&gt;ECUAL&lt;br/&gt;&lt;/font&gt;&lt;/div&gt;" style="text;vsdxID=140;fillColor=none;gradientColor=none;strokeColor=none;spacingTop=-1;spacingBottom=-1;spacingLeft=-1;spacingRight=-1;points=[[0,0.75,0],[0,0.5,0],[0,0.25,0],[0.25,0,0],[0.5,0,0],[0.75,0,0],[1,0.25,0],[1,0.5,0],[1,0.75,0],[0.75,1,0],[0.5,1,0],[0.25,1,0]];labelBackgroundColor=none;rounded=1;html=1;whiteSpace=wrap;verticalAlign=top;align=center;overflow=width;;html=1;" parent="x1LBng_5WOXiY_3KLzgl-15" vertex="1">
          <mxGeometry x="142.3623188405797" y="5.8769375" width="550.4483695652174" as="geometry" />
        </mxCell>
        <mxCell id="x1LBng_5WOXiY_3KLzgl-20" value="&lt;font color=&quot;#f0a30a&quot; style=&quot;font-size: 19px;&quot;&gt;HAL&lt;/font&gt;" style="text;strokeColor=none;align=center;fillColor=none;html=1;verticalAlign=middle;whiteSpace=wrap;rounded=0;fontSize=16;" parent="x1LBng_5WOXiY_3KLzgl-15" vertex="1">
          <mxGeometry x="230.66318840579711" y="10.00375" width="88.67753623188406" height="24.9375" as="geometry" />
        </mxCell>
        <UserObject label="BT" BpmnName="LCD" tags="Flowchart" id="x1LBng_5WOXiY_3KLzgl-56">
          <mxCell style="vsdxID=591;fillColor=none;gradientColor=none;strokeColor=none;spacingTop=-1;spacingBottom=-1;spacingLeft=-1;spacingRight=-1;points=[[0,0.75,0],[0,0.5,0],[0,0.25,0],[0.25,0,0],[0.5,0,0],[0.75,0,0],[1,0.25,0],[1,0.5,0],[1,0.75,0],[0.75,1,0],[0.5,1,0],[0.25,1,0]];labelBackgroundColor=none;rounded=1;html=1;whiteSpace=wrap;fontFamily=Calibri;fontSize=19;fontStyle=1;fontColor=#FFFFFF;" parent="x1LBng_5WOXiY_3KLzgl-15" vertex="1">
            <mxGeometry x="21.46942028985507" y="48.212500000000006" width="250" height="60" as="geometry" />
          </mxCell>
        </UserObject>
        <mxCell id="x1LBng_5WOXiY_3KLzgl-57" value="BTN" style="vsdxID=592;fillColor=#f0a30a;shape=stencil(nZCxDsIwDES/xitKk6V7KT/AF0TUEIuQVGmgwNeT9kCqOjB0s++efdKRaQZneyathpzilUfpsiOzJ60lOE6Sy0SmJdOcY+JLivfQYe9tIbWaFe5wU020VjadjvJmaPWu0jV0HN7iYwp8wlawXt8HCvsBqJewQH/mJvgPuhFcxZdhrgRlifdodOmvKywS6jftBw==);strokeColor=#BD7000;spacingTop=-1;spacingBottom=-1;spacingLeft=-1;spacingRight=-1;points=[[0,0.75,0],[0,0.5,0],[0,0.25,0],[0.25,0,0],[0.5,0,0],[0.75,0,0],[1,0.25,0],[1,0.5,0],[1,0.75,0],[0.75,1,0],[0.5,1,0],[0.25,1,0]];labelBackgroundColor=none;rounded=1;html=1;whiteSpace=wrap;fontColor=#FFFFFF;fontFamily=Calibri;fontSize=19;fontStyle=1" parent="x1LBng_5WOXiY_3KLzgl-56" vertex="1">
          <mxGeometry width="250" height="60" as="geometry" />
        </mxCell>
        <mxCell id="x1LBng_5WOXiY_3KLzgl-59" value="&lt;div style=&quot;font-size: 19px;&quot;&gt;&lt;/div&gt;" style="verticalAlign=middle;align=center;overflow=width;vsdxID=604;fillColor=none;gradientColor=none;strokeColor=none;spacingTop=-1;spacingBottom=-1;spacingLeft=-1;spacingRight=-1;points=[[0,0.75,0],[0,0.5,0],[0,0.25,0],[0.25,0,0],[0.5,0,0],[0.75,0,0],[1,0.25,0],[1,0.5,0],[1,0.75,0],[0.75,1,0],[0.5,1,0],[0.25,1,0]];labelBackgroundColor=none;rounded=0;html=1;whiteSpace=wrap;fontFamily=Calibri;fontSize=19;fontStyle=1;fontColor=#FFFFFF;" parent="x1LBng_5WOXiY_3KLzgl-56" vertex="1">
          <mxGeometry x="8.333333333333332" y="3.9473684210526314" width="23.333333333333332" height="11.05263157894737" as="geometry" />
        </mxCell>
        <mxCell id="x1LBng_5WOXiY_3KLzgl-60" value="&lt;div style=&quot;font-size: 19px;&quot;&gt;&lt;font style=&quot;font-size: 19px; direction: ltr; letter-spacing: 0px; line-height: 120%; opacity: 1;&quot;&gt;&lt;span style=&quot;font-size: 19px;&quot;&gt;LCD&lt;br style=&quot;font-size: 19px;&quot;&gt;&lt;/span&gt;&lt;/font&gt;&lt;/div&gt;" style="text;vsdxID=591;fillColor=none;gradientColor=none;strokeColor=none;spacingTop=-1;spacingBottom=-1;spacingLeft=-1;spacingRight=-1;points=[[0,0.75,0],[0,0.5,0],[0,0.25,0],[0.25,0,0],[0.5,0,0],[0.75,0,0],[1,0.25,0],[1,0.5,0],[1,0.75,0],[0.75,1,0],[0.5,1,0],[0.25,1,0]];labelBackgroundColor=none;rounded=1;html=1;whiteSpace=wrap;verticalAlign=middle;align=center;overflow=width;;html=1;fontFamily=Calibri;fontSize=19;fontStyle=1;fontColor=#FFFFFF;" parent="x1LBng_5WOXiY_3KLzgl-56" vertex="1">
          <mxGeometry y="29.921052631578945" width="251.35" as="geometry" />
        </mxCell>
        <UserObject label="" BpmnName="BUZZER" tags="Flowchart" id="x1LBng_5WOXiY_3KLzgl-66">
          <mxCell style="vsdxID=861;fillColor=none;gradientColor=none;strokeColor=none;spacingTop=-1;spacingBottom=-1;spacingLeft=-1;spacingRight=-1;points=[[0,0.75,0],[0,0.5,0],[0,0.25,0],[0.25,0,0],[0.5,0,0],[0.75,0,0],[1,0.25,0],[1,0.5,0],[1,0.75,0],[0.75,1,0],[0.5,1,0],[0.25,1,0]];labelBackgroundColor=none;rounded=1;html=1;whiteSpace=wrap;fontFamily=Calibri;fontSize=19;fontStyle=1;fontColor=#FFFFFF;" parent="x1LBng_5WOXiY_3KLzgl-15" vertex="1">
            <mxGeometry x="278.53811594202904" y="48.20875" width="250" height="60" as="geometry" />
          </mxCell>
        </UserObject>
        <mxCell id="x1LBng_5WOXiY_3KLzgl-67" value="LED" style="vsdxID=862;fillColor=#f0a30a;shape=stencil(nZCxDsIwDES/xitKk6V7KT/AF0TUEIuQVGmgwNeT9kCqOjB0s++efdKRaQZneyathpzilUfpsiOzJ60lOE6Sy0SmJdOcY+JLivfQYe9tIbWaFe5wU020VjadjvJmaPWu0jV0HN7iYwp8wlawXt8HCvsBqJewQH/mJvgPuhFcxZdhrgRlifdodOmvKywS6jftBw==);strokeColor=#BD7000;spacingTop=-1;spacingBottom=-1;spacingLeft=-1;spacingRight=-1;points=[[0,0.75,0],[0,0.5,0],[0,0.25,0],[0.25,0,0],[0.5,0,0],[0.75,0,0],[1,0.25,0],[1,0.5,0],[1,0.75,0],[0.75,1,0],[0.5,1,0],[0.25,1,0]];labelBackgroundColor=none;rounded=1;html=1;whiteSpace=wrap;fontColor=#FFFFFF;fontFamily=Calibri;fontSize=19;fontStyle=1" parent="x1LBng_5WOXiY_3KLzgl-66" vertex="1">
          <mxGeometry width="250" height="60" as="geometry" />
        </mxCell>
        <mxCell id="x1LBng_5WOXiY_3KLzgl-68" value="&lt;div style=&quot;font-size: 19px;&quot;&gt;&lt;/div&gt;" style="verticalAlign=middle;align=center;overflow=width;vsdxID=866;fillColor=none;gradientColor=none;strokeColor=none;strokeWidth=2;spacingTop=-3;spacingBottom=-3;spacingLeft=-3;spacingRight=-3;points=[[0,0.75,0],[0,0.5,0],[0,0.25,0],[0.25,0,0],[0.5,0,0],[0.75,0,0],[1,0.25,0],[1,0.5,0],[1,0.75,0],[0.75,1,0],[0.5,1,0],[0.25,1,0]];labelBackgroundColor=none;rounded=0;html=1;whiteSpace=wrap;fontFamily=Calibri;fontSize=19;fontStyle=1;fontColor=#FFFFFF;" parent="x1LBng_5WOXiY_3KLzgl-66" vertex="1">
          <mxGeometry x="127.71739130434784" y="44.21052631578948" width="43.47826086956522" height="12.631578947368421" as="geometry" />
        </mxCell>
        <mxCell id="x1LBng_5WOXiY_3KLzgl-69" value="&lt;div style=&quot;font-size: 19px;&quot;&gt;&lt;/div&gt;" style="verticalAlign=middle;align=center;overflow=width;vsdxID=874;fillColor=none;gradientColor=none;strokeColor=none;spacingTop=-1;spacingBottom=-1;spacingLeft=-1;spacingRight=-1;points=[[0,0.75,0],[0,0.5,0],[0,0.25,0],[0.25,0,0],[0.5,0,0],[0.75,0,0],[1,0.25,0],[1,0.5,0],[1,0.75,0],[0.75,1,0],[0.5,1,0],[0.25,1,0]];labelBackgroundColor=none;rounded=0;html=1;whiteSpace=wrap;fontFamily=Calibri;fontSize=19;fontStyle=1;fontColor=#FFFFFF;" parent="x1LBng_5WOXiY_3KLzgl-66" vertex="1">
          <mxGeometry x="13.586956521739129" y="3.9473684210526314" width="38.04347826086957" height="11.05263157894737" as="geometry" />
        </mxCell>
        <mxCell id="x1LBng_5WOXiY_3KLzgl-70" value="&lt;div style=&quot;font-size: 19px;&quot;&gt;&lt;font style=&quot;font-size: 19px; direction: ltr; letter-spacing: 0px; line-height: 120%; opacity: 1;&quot;&gt;&lt;span style=&quot;font-size: 19px;&quot;&gt;`&lt;/span&gt;&lt;/font&gt;&lt;/div&gt;" style="text;vsdxID=861;fillColor=none;gradientColor=none;strokeColor=none;spacingTop=-1;spacingBottom=-1;spacingLeft=-1;spacingRight=-1;points=[[0,0.75,0],[0,0.5,0],[0,0.25,0],[0.25,0,0],[0.5,0,0],[0.75,0,0],[1,0.25,0],[1,0.5,0],[1,0.75,0],[0.75,1,0],[0.5,1,0],[0.25,1,0]];labelBackgroundColor=none;rounded=1;html=1;whiteSpace=wrap;verticalAlign=middle;align=center;overflow=width;;html=1;fontFamily=Calibri;fontSize=19;fontStyle=1;fontColor=#FFFFFF;" parent="x1LBng_5WOXiY_3KLzgl-66" vertex="1">
          <mxGeometry y="29.921052631578945" width="250.21739130434784" as="geometry" />
        </mxCell>
        <UserObject label="" BpmnName="APP" tags="Flowchart" id="x1LBng_5WOXiY_3KLzgl-21">
          <mxCell style="vsdxID=163;fillColor=none;gradientColor=none;strokeColor=none;spacingTop=-1;spacingBottom=-1;spacingLeft=-1;spacingRight=-1;points=[[0.14,1,0]];labelBackgroundColor=none;rounded=1;html=1;whiteSpace=wrap;fontFamily=Calibri;fontSize=19;fontStyle=1;fontColor=#FFFFFF;" parent="1" vertex="1">
            <mxGeometry x="-20" y="-1041.6" width="462" height="76" as="geometry" />
          </mxCell>
        </UserObject>
        <mxCell id="x1LBng_5WOXiY_3KLzgl-22" value="&lt;font color=&quot;#000000&quot;&gt;APP&lt;/font&gt;" style="vsdxID=164;fillColor=#ffffff;gradientColor=none;shape=stencil(nZCxDsIwDES/xitKk6V7KT/AF0TUEIuQVGmgwNeT9kCqOjB0s++efdKRaQZneyathpzilUfpsiOzJ60lOE6Sy0SmJdOcY+JLivfQYe9tIbWaFe5wU020VjadjvJmaPWu0jV0HN7iYwp8wlawXt8HCvsBqJewQH/mJvgPuhFcxZdhrgRlifdodOmvKywS6jftBw==);strokeColor=#849e33;spacingTop=-1;spacingBottom=-1;spacingLeft=-1;spacingRight=-1;points=[[0,0.75,0],[0,0.5,0],[0,0.25,0],[0.25,0,0],[0.5,0,0],[0.75,0,0],[1,0.25,0],[1,0.5,0],[1,0.75,0],[0.75,1,0],[0.5,1,0],[0.25,1,0]];labelBackgroundColor=none;rounded=1;html=1;whiteSpace=wrap;fontFamily=Calibri;fontSize=19;fontStyle=1;fontColor=#FFFFFF;" parent="x1LBng_5WOXiY_3KLzgl-21" vertex="1">
          <mxGeometry width="462" height="76" as="geometry" />
        </mxCell>
        <mxCell id="x1LBng_5WOXiY_3KLzgl-23" value="&lt;div style=&quot;font-size: 19px;&quot;&gt;&lt;/div&gt;" style="verticalAlign=middle;align=center;overflow=width;vsdxID=168;fillColor=none;gradientColor=none;strokeColor=none;strokeWidth=2;spacingTop=-3;spacingBottom=-3;spacingLeft=-3;spacingRight=-3;points=[[0,0.75,0],[0,0.5,0],[0,0.25,0],[0.25,0,0],[0.5,0,0],[0.75,0,0],[1,0.25,0],[1,0.5,0],[1,0.75,0],[0.75,1,0],[0.5,1,0],[0.25,1,0]];labelBackgroundColor=none;rounded=0;html=1;whiteSpace=wrap;fontFamily=Calibri;fontSize=19;fontStyle=1;fontColor=#FFFFFF;" parent="x1LBng_5WOXiY_3KLzgl-21" vertex="1">
          <mxGeometry x="232" y="56" width="16" height="16" as="geometry" />
        </mxCell>
        <mxCell id="x1LBng_5WOXiY_3KLzgl-24" value="&lt;div style=&quot;font-size: 19px;&quot;&gt;&lt;/div&gt;" style="verticalAlign=middle;align=center;overflow=width;vsdxID=176;fillColor=none;gradientColor=none;strokeColor=none;spacingTop=-1;spacingBottom=-1;spacingLeft=-1;spacingRight=-1;points=[[0,0.75,0],[0,0.5,0],[0,0.25,0],[0.25,0,0],[0.5,0,0],[0.75,0,0],[1,0.25,0],[1,0.5,0],[1,0.75,0],[0.75,1,0],[0.5,1,0],[0.25,1,0]];labelBackgroundColor=none;rounded=0;html=1;whiteSpace=wrap;fontFamily=Calibri;fontSize=19;fontStyle=1;fontColor=#FFFFFF;" parent="x1LBng_5WOXiY_3KLzgl-21" vertex="1">
          <mxGeometry x="5" y="5" width="14" height="14" as="geometry" />
        </mxCell>
        <mxCell id="x1LBng_5WOXiY_3KLzgl-25" value="&lt;div style=&quot;font-size: 19px;&quot;&gt;&lt;font style=&quot;font-size: 19px; direction: ltr; letter-spacing: 0px; line-height: 120%; opacity: 1;&quot;&gt;&lt;span style=&quot;font-size: 19px;&quot;&gt;APP&lt;br style=&quot;font-size: 19px;&quot;&gt;&lt;/span&gt;&lt;/font&gt;&lt;/div&gt;" style="text;vsdxID=163;fillColor=none;gradientColor=none;strokeColor=none;spacingTop=-1;spacingBottom=-1;spacingLeft=-1;spacingRight=-1;points=[[0.14,1,0]];labelBackgroundColor=none;rounded=1;html=1;whiteSpace=wrap;verticalAlign=middle;align=center;overflow=width;;html=1;fontFamily=Calibri;fontSize=19;fontStyle=1;fontColor=#FFFFFF;" parent="x1LBng_5WOXiY_3KLzgl-21" vertex="1">
          <mxGeometry y="37.9" width="462.52" as="geometry" />
        </mxCell>
        <UserObject label="" BpmnName="LIB" tags="Flowchart" id="x1LBng_5WOXiY_3KLzgl-26">
          <mxCell style="vsdxID=209;fillColor=none;gradientColor=none;strokeColor=none;spacingTop=-1;spacingBottom=-1;spacingLeft=-1;spacingRight=-1;points=[[0,0.75,0],[0,0.5,0],[0,0.25,0],[0.25,0,0],[0.5,0,0],[0.75,0,0],[1,0.25,0],[1,0.5,0],[1,0.75,0],[0.75,1,0],[0.5,1,0],[0.25,1,0]];labelBackgroundColor=none;rounded=1;html=1;whiteSpace=wrap;" parent="1" vertex="1">
            <mxGeometry x="-179" y="-1082" width="101" height="480" as="geometry" />
          </mxCell>
        </UserObject>
        <mxCell id="x1LBng_5WOXiY_3KLzgl-27" style="vsdxID=210;fillColor=#a5a5a5;gradientColor=none;shape=stencil(nZCxDsIwDES/xitKk6V7KT/AF0TUEIuQVGmgwNeT9kCqOjB0s++efdKRaQZneyathpzilUfpsiOzJ60lOE6Sy0SmJdOcY+JLivfQYe9tIbWaFe5wU020VjadjvJmaPWu0jV0HN7iYwp8wlawXt8HCvsBqJewQH/mJvgPuhFcxZdhrgRlifdodOmvKywS6jftBw==);strokeColor=#a5a5a5;spacingTop=-1;spacingBottom=-1;spacingLeft=-1;spacingRight=-1;points=[[0,0.75,0],[0,0.5,0],[0,0.25,0],[0.25,0,0],[0.5,0,0],[0.75,0,0],[1,0.25,0],[1,0.5,0],[1,0.75,0],[0.75,1,0],[0.5,1,0],[0.25,1,0]];labelBackgroundColor=none;rounded=1;html=1;whiteSpace=wrap;" parent="x1LBng_5WOXiY_3KLzgl-26" vertex="1">
          <mxGeometry width="101" height="480" as="geometry" />
        </mxCell>
        <mxCell id="x1LBng_5WOXiY_3KLzgl-28" value="&lt;div style=&quot;font-size: 1px&quot;&gt;&lt;/div&gt;" style="verticalAlign=middle;align=center;overflow=width;vsdxID=214;fillColor=none;gradientColor=none;strokeColor=none;strokeWidth=2;spacingTop=-3;spacingBottom=-3;spacingLeft=-3;spacingRight=-3;points=[[0,0.75,0],[0,0.5,0],[0,0.25,0],[0.25,0,0],[0.5,0,0],[0.75,0,0],[1,0.25,0],[1,0.5,0],[1,0.75,0],[0.75,1,0],[0.5,1,0],[0.25,1,0]];labelBackgroundColor=none;rounded=0;html=1;whiteSpace=wrap;" parent="x1LBng_5WOXiY_3KLzgl-26" vertex="1">
          <mxGeometry x="51" y="462.18923933209646" width="16" height="14.24860853432282" as="geometry" />
        </mxCell>
        <mxCell id="x1LBng_5WOXiY_3KLzgl-29" value="&lt;div style=&quot;font-size: 1px&quot;&gt;&lt;/div&gt;" style="verticalAlign=middle;align=center;overflow=width;vsdxID=222;fillColor=none;gradientColor=none;strokeColor=none;spacingTop=-1;spacingBottom=-1;spacingLeft=-1;spacingRight=-1;points=[[0,0.75,0],[0,0.5,0],[0,0.25,0],[0.25,0,0],[0.5,0,0],[0.75,0,0],[1,0.25,0],[1,0.5,0],[1,0.75,0],[0.75,1,0],[0.5,1,0],[0.25,1,0]];labelBackgroundColor=none;rounded=0;html=1;whiteSpace=wrap;" parent="x1LBng_5WOXiY_3KLzgl-26" vertex="1">
          <mxGeometry x="5" y="4.452690166975881" width="14" height="12.467532467532468" as="geometry" />
        </mxCell>
        <mxCell id="x1LBng_5WOXiY_3KLzgl-30" value="&lt;div style=&quot;font-size: 1px&quot;&gt;&lt;font style=&quot;font-size:19.76px;font-family:Calibri;color:#ffffff;direction:ltr;letter-spacing:0px;line-height:120%;opacity:1&quot;&gt;LIB&lt;br/&gt;&lt;/font&gt;&lt;/div&gt;" style="text;vsdxID=209;fillColor=none;gradientColor=none;strokeColor=none;spacingTop=-1;spacingBottom=-1;spacingLeft=-1;spacingRight=-1;points=[[0,0.75,0],[0,0.5,0],[0,0.25,0],[0.25,0,0],[0.5,0,0],[0.75,0,0],[1,0.25,0],[1,0.5,0],[1,0.75,0],[0.75,1,0],[0.5,1,0],[0.25,1,0]];labelBackgroundColor=none;rounded=1;html=1;whiteSpace=wrap;verticalAlign=middle;align=center;overflow=width;rotation=270.05;;html=1;" parent="x1LBng_5WOXiY_3KLzgl-26" vertex="1">
          <mxGeometry x="-38.1" y="236.83858998144711" width="101.6" as="geometry" />
        </mxCell>
        <UserObject label="&lt;font style=&quot;font-size: 21px;&quot;&gt;LIB&lt;/font&gt;" tags="Background" id="x1LBng_5WOXiY_3KLzgl-48">
          <mxCell style="vsdxID=492;fillColor=none;gradientColor=none;strokeColor=none;points=[];labelBackgroundColor=none;rounded=0;html=1;whiteSpace=wrap;horizontal=0;fontFamily=Calibri;fontSize=19;fontColor=#ffffff;" parent="x1LBng_5WOXiY_3KLzgl-26" vertex="1">
            <mxGeometry x="-18" y="175" width="73" height="104" as="geometry" />
          </mxCell>
        </UserObject>
        <UserObject label="" tags="Background" id="x1LBng_5WOXiY_3KLzgl-31">
          <mxCell style="vsdxID=259;fillColor=none;gradientColor=none;strokeColor=none;points=[];labelBackgroundColor=none;rounded=0;html=1;whiteSpace=wrap;" parent="1" vertex="1">
            <mxGeometry x="-143" y="-1062" width="50" height="185" as="geometry" />
          </mxCell>
        </UserObject>
        <mxCell id="x1LBng_5WOXiY_3KLzgl-32" style="vsdxID=232;fillColor=none;gradientColor=none;strokeColor=none;spacingTop=-1;spacingBottom=-1;spacingLeft=-1;spacingRight=-1;points=[[0,0.75,0],[0,0.5,0],[0,0.25,0],[0.25,0,0],[0.5,0,0],[0.75,0,0],[1,0.25,0],[1,0.5,0],[1,0.75,0],[0.75,1,0],[0.5,1,0],[0.25,1,0]];labelBackgroundColor=none;rounded=1;html=1;whiteSpace=wrap;" parent="x1LBng_5WOXiY_3KLzgl-31" vertex="1">
          <mxGeometry width="50" height="185" as="geometry" />
        </mxCell>
        <mxCell id="x1LBng_5WOXiY_3KLzgl-33" style="vsdxID=233;fillColor=#ffffff;gradientColor=none;shape=stencil(nZCxDsIwDES/xitKk6V7KT/AF0TUEIuQVGmgwNeT9kCqOjB0s++efdKRaQZneyathpzilUfpsiOzJ60lOE6Sy0SmJdOcY+JLivfQYe9tIbWaFe5wU020VjadjvJmaPWu0jV0HN7iYwp8wlawXt8HCvsBqJewQH/mJvgPuhFcxZdhrgRlifdodOmvKywS6jftBw==);strokeColor=#a5a5a5;spacingTop=-1;spacingBottom=-1;spacingLeft=-1;spacingRight=-1;points=[[0,0.75,0],[0,0.5,0],[0,0.25,0],[0.25,0,0],[0.5,0,0],[0.75,0,0],[1,0.25,0],[1,0.5,0],[1,0.75,0],[0.75,1,0],[0.5,1,0],[0.25,1,0]];labelBackgroundColor=none;rounded=1;html=1;whiteSpace=wrap;" parent="x1LBng_5WOXiY_3KLzgl-32" vertex="1">
          <mxGeometry width="50" height="185" as="geometry" />
        </mxCell>
        <mxCell id="x1LBng_5WOXiY_3KLzgl-34" value="&lt;div style=&quot;font-size: 1px&quot;&gt;&lt;/div&gt;" style="verticalAlign=middle;align=center;overflow=width;vsdxID=237;fillColor=none;gradientColor=none;strokeColor=none;strokeWidth=2;spacingTop=-3;spacingBottom=-3;spacingLeft=-3;spacingRight=-3;points=[[0,0.75,0],[0,0.5,0],[0,0.25,0],[0.25,0,0],[0.5,0,0],[0.75,0,0],[1,0.25,0],[1,0.5,0],[1,0.75,0],[0.75,1,0],[0.5,1,0],[0.25,1,0]];labelBackgroundColor=none;rounded=0;html=1;whiteSpace=wrap;" parent="x1LBng_5WOXiY_3KLzgl-32" vertex="1">
          <mxGeometry x="26" y="168.18181818181822" width="16" height="13.454545454545455" as="geometry" />
        </mxCell>
        <mxCell id="x1LBng_5WOXiY_3KLzgl-35" value="&lt;div style=&quot;font-size: 1px&quot;&gt;&lt;/div&gt;" style="verticalAlign=middle;align=center;overflow=width;vsdxID=245;fillColor=none;gradientColor=none;strokeColor=none;spacingTop=-1;spacingBottom=-1;spacingLeft=-1;spacingRight=-1;points=[[0,0.75,0],[0,0.5,0],[0,0.25,0],[0.25,0,0],[0.5,0,0],[0.75,0,0],[1,0.25,0],[1,0.5,0],[1,0.75,0],[0.75,1,0],[0.5,1,0],[0.25,1,0]];labelBackgroundColor=none;rounded=0;html=1;whiteSpace=wrap;" parent="x1LBng_5WOXiY_3KLzgl-32" vertex="1">
          <mxGeometry x="5" y="4.204545454545455" width="14" height="11.772727272727273" as="geometry" />
        </mxCell>
        <mxCell id="x1LBng_5WOXiY_3KLzgl-36" value="&lt;div style=&quot;font-size: 1px&quot;&gt;&lt;/div&gt;" style="text;vsdxID=232;fillColor=none;gradientColor=none;strokeColor=none;spacingTop=-1;spacingBottom=-1;spacingLeft=-1;spacingRight=-1;points=[[0,0.75,0],[0,0.5,0],[0,0.25,0],[0.25,0,0],[0.5,0,0],[0.75,0,0],[1,0.25,0],[1,0.5,0],[1,0.75,0],[0.75,1,0],[0.5,1,0],[0.25,1,0]];labelBackgroundColor=none;rounded=1;html=1;whiteSpace=wrap;verticalAlign=top;align=center;overflow=width;rotation=270.05;;html=1;" parent="x1LBng_5WOXiY_3KLzgl-32" vertex="1">
          <mxGeometry x="-14.29" y="98.89931818181819" width="50.8" as="geometry" />
        </mxCell>
        <mxCell id="x1LBng_5WOXiY_3KLzgl-37" value="&lt;div style=&quot;font-size: 1px&quot;&gt;&lt;font style=&quot;font-size:16.93px;font-family:Calibri;color:#5b9bd5;direction:ltr;letter-spacing:0px;line-height:120%;opacity:1&quot;&gt;&lt;b&gt;Bit Math&lt;br/&gt;&lt;/b&gt;&lt;/font&gt;&lt;/div&gt;" style="verticalAlign=middle;align=center;overflow=width;vsdxID=257;rotation=270;fillColor=none;gradientColor=none;shape=stencil(nZBLDoAgDERP0z3SIyjew0SURgSD+Lu9kMZoXLhwN9O+tukAlrNpJg1SzDH4QW/URgNYgZTkjA4UkwJUgGXng+6DX1zLfmoymdXo17xh5zmRJ6Q42BWCfc2oJfdAr+Yv+AP9Cb7OJ3H/2JG1HNGz/84klThPVCc=);strokeColor=none;points=[];labelBackgroundColor=none;rounded=0;html=1;whiteSpace=wrap;" parent="x1LBng_5WOXiY_3KLzgl-31" vertex="1">
          <mxGeometry x="-81" y="77.36363636363637" width="211" height="29.431818181818183" as="geometry" />
        </mxCell>
        <UserObject label="" tags="Background" id="x1LBng_5WOXiY_3KLzgl-49">
          <mxCell style="vsdxID=542;fillColor=none;gradientColor=none;strokeColor=none;points=[];labelBackgroundColor=none;rounded=0;html=1;whiteSpace=wrap;" parent="1" vertex="1">
            <mxGeometry x="-143" y="-846" width="50" height="213" as="geometry" />
          </mxCell>
        </UserObject>
        <mxCell id="x1LBng_5WOXiY_3KLzgl-50" style="vsdxID=543;fillColor=none;gradientColor=none;strokeColor=none;spacingTop=-1;spacingBottom=-1;spacingLeft=-1;spacingRight=-1;points=[[0,0.75,0],[0,0.5,0],[0,0.25,0],[0.25,0,0],[0.5,0,0],[0.75,0,0],[1,0.25,0],[1,0.5,0],[1,0.75,0],[0.75,1,0],[0.5,1,0],[0.25,1,0]];labelBackgroundColor=none;rounded=1;html=1;whiteSpace=wrap;" parent="x1LBng_5WOXiY_3KLzgl-49" vertex="1">
          <mxGeometry width="50" height="213" as="geometry" />
        </mxCell>
        <mxCell id="x1LBng_5WOXiY_3KLzgl-51" style="vsdxID=544;fillColor=#ffffff;gradientColor=none;shape=stencil(nZCxDsIwDES/xitKk6V7KT/AF0TUEIuQVGmgwNeT9kCqOjB0s++efdKRaQZneyathpzilUfpsiOzJ60lOE6Sy0SmJdOcY+JLivfQYe9tIbWaFe5wU020VjadjvJmaPWu0jV0HN7iYwp8wlawXt8HCvsBqJewQH/mJvgPuhFcxZdhrgRlifdodOmvKywS6jftBw==);strokeColor=#a5a5a5;spacingTop=-1;spacingBottom=-1;spacingLeft=-1;spacingRight=-1;points=[[0,0.75,0],[0,0.5,0],[0,0.25,0],[0.25,0,0],[0.5,0,0],[0.75,0,0],[1,0.25,0],[1,0.5,0],[1,0.75,0],[0.75,1,0],[0.5,1,0],[0.25,1,0]];labelBackgroundColor=none;rounded=1;html=1;whiteSpace=wrap;" parent="x1LBng_5WOXiY_3KLzgl-50" vertex="1">
          <mxGeometry width="50" height="213" as="geometry" />
        </mxCell>
        <mxCell id="x1LBng_5WOXiY_3KLzgl-52" value="&lt;div style=&quot;font-size: 1px&quot;&gt;&lt;/div&gt;" style="verticalAlign=middle;align=center;overflow=width;vsdxID=548;fillColor=none;gradientColor=none;strokeColor=none;strokeWidth=2;spacingTop=-3;spacingBottom=-3;spacingLeft=-3;spacingRight=-3;points=[[0,0.75,0],[0,0.5,0],[0,0.25,0],[0.25,0,0],[0.5,0,0],[0.75,0,0],[1,0.25,0],[1,0.5,0],[1,0.75,0],[0.75,1,0],[0.5,1,0],[0.25,1,0]];labelBackgroundColor=none;rounded=0;html=1;whiteSpace=wrap;" parent="x1LBng_5WOXiY_3KLzgl-50" vertex="1">
          <mxGeometry x="26" y="193.6363636363636" width="16" height="15.49090909090909" as="geometry" />
        </mxCell>
        <mxCell id="x1LBng_5WOXiY_3KLzgl-53" value="&lt;div style=&quot;font-size: 1px&quot;&gt;&lt;/div&gt;" style="verticalAlign=middle;align=center;overflow=width;vsdxID=556;fillColor=none;gradientColor=none;strokeColor=none;spacingTop=-1;spacingBottom=-1;spacingLeft=-1;spacingRight=-1;points=[[0,0.75,0],[0,0.5,0],[0,0.25,0],[0.25,0,0],[0.5,0,0],[0.75,0,0],[1,0.25,0],[1,0.5,0],[1,0.75,0],[0.75,1,0],[0.5,1,0],[0.25,1,0]];labelBackgroundColor=none;rounded=0;html=1;whiteSpace=wrap;" parent="x1LBng_5WOXiY_3KLzgl-50" vertex="1">
          <mxGeometry x="5" y="4.840909090909091" width="14" height="13.554545454545453" as="geometry" />
        </mxCell>
        <mxCell id="x1LBng_5WOXiY_3KLzgl-54" value="&lt;div style=&quot;font-size: 1px&quot;&gt;&lt;/div&gt;" style="text;vsdxID=543;fillColor=none;gradientColor=none;strokeColor=none;spacingTop=-1;spacingBottom=-1;spacingLeft=-1;spacingRight=-1;points=[[0,0.75,0],[0,0.5,0],[0,0.25,0],[0.25,0,0],[0.5,0,0],[0.75,0,0],[1,0.25,0],[1,0.5,0],[1,0.75,0],[0.75,1,0],[0.5,1,0],[0.25,1,0]];labelBackgroundColor=none;rounded=1;html=1;whiteSpace=wrap;verticalAlign=top;align=center;overflow=width;rotation=270.05;;html=1;" parent="x1LBng_5WOXiY_3KLzgl-50" vertex="1">
          <mxGeometry x="-14.29" y="113.86786363636362" width="50.8" as="geometry" />
        </mxCell>
        <mxCell id="x1LBng_5WOXiY_3KLzgl-55" value="&lt;div style=&quot;font-size: 1px&quot;&gt;&lt;font style=&quot;font-size:16.93px;font-family:Calibri;color:#5b9bd5;direction:ltr;letter-spacing:0px;line-height:120%;opacity:1&quot;&gt;&lt;b&gt;STD Types&lt;br/&gt;&lt;/b&gt;&lt;/font&gt;&lt;/div&gt;" style="verticalAlign=middle;align=center;overflow=width;vsdxID=566;rotation=270;fillColor=none;gradientColor=none;shape=stencil(nZBLDoAgDERP0z3SIyjew0SURgSD+Lu9kMZoXLhwN9O+tukAlrNpJg1SzDH4QW/URgNYgZTkjA4UkwJUgGXng+6DX1zLfmoymdXo17xh5zmRJ6Q42BWCfc2oJfdAr+Yv+AP9Cb7OJ3H/2JG1HNGz/84klThPVCc=);strokeColor=none;points=[];labelBackgroundColor=none;rounded=0;html=1;whiteSpace=wrap;" parent="x1LBng_5WOXiY_3KLzgl-49" vertex="1">
          <mxGeometry x="-81" y="89.07272727272728" width="211" height="33.88636363636363" as="geometry" />
        </mxCell>
        <mxCell id="x1LBng_5WOXiY_3KLzgl-90" value="&lt;div style=&quot;font-size: 19px;&quot;&gt;&lt;/div&gt;" style="verticalAlign=middle;align=center;overflow=width;vsdxID=99;fillColor=none;gradientColor=none;strokeColor=none;strokeWidth=2;spacingTop=-3;spacingBottom=-3;spacingLeft=-3;spacingRight=-3;points=[[0,0.75,0],[0,0.5,0],[0,0.25,0],[0.25,0,0],[0.5,0,0],[0.75,0,0],[1,0.25,0],[1,0.5,0],[1,0.75,0],[0.75,1,0],[0.5,1,0],[0.25,1,0]];labelBackgroundColor=none;rounded=0;html=1;whiteSpace=wrap;fontFamily=Calibri;fontSize=19;fontStyle=1;fontColor=#FFFFFF;" parent="1" vertex="1">
          <mxGeometry x="212" y="-621" width="16" height="16" as="geometry" />
        </mxCell>
        <mxCell id="x1LBng_5WOXiY_3KLzgl-91" value="&lt;div style=&quot;font-size: 19px;&quot;&gt;&lt;/div&gt;" style="verticalAlign=middle;align=center;overflow=width;vsdxID=107;fillColor=none;gradientColor=none;strokeColor=none;spacingTop=-1;spacingBottom=-1;spacingLeft=-1;spacingRight=-1;points=[[0,0.75,0],[0,0.5,0],[0,0.25,0],[0.25,0,0],[0.5,0,0],[0.75,0,0],[1,0.25,0],[1,0.5,0],[1,0.75,0],[0.75,1,0],[0.5,1,0],[0.25,1,0]];labelBackgroundColor=none;rounded=0;html=1;whiteSpace=wrap;fontFamily=Calibri;fontSize=19;fontStyle=1;fontColor=#FFFFFF;" parent="1" vertex="1">
          <mxGeometry x="-60" y="-640" width="14" height="14" as="geometry" />
        </mxCell>
        <mxCell id="x1LBng_5WOXiY_3KLzgl-92" value="&lt;div style=&quot;font-size: 19px;&quot;&gt;&lt;font style=&quot;font-size: 19px; direction: ltr; letter-spacing: 0px; line-height: 120%; opacity: 1;&quot;&gt;Microcontroller&lt;br style=&quot;font-size: 19px;&quot;&gt;&lt;/font&gt;&lt;/div&gt;" style="text;vsdxID=94;fillColor=none;gradientColor=none;strokeColor=none;spacingTop=-1;spacingBottom=-1;spacingLeft=-1;spacingRight=-1;points=[[0,0.75,0],[0,0.5,0],[0,0.25,0],[0.25,0,0],[0.5,0,0],[0.75,0,0],[1,0.25,0],[1,0.5,0],[1,0.75,0],[0.75,1,0],[0.5,1,0],[0.25,1,0]];labelBackgroundColor=none;rounded=1;html=1;whiteSpace=wrap;verticalAlign=middle;align=center;overflow=width;;html=1;fontFamily=Calibri;fontSize=19;fontStyle=1;fontColor=#FFFFFF;" parent="1" vertex="1">
          <mxGeometry x="-65" y="-623.22" width="552.45" as="geometry" />
        </mxCell>
      </root>
    </mxGraphModel>
  </diagram>
</mxfile>
